<?xml version="1.0" encoding="UTF-8" standalone="no"?>
<svg
   xmlns:dc="http://purl.org/dc/elements/1.1/"
   xmlns:cc="http://creativecommons.org/ns#"
   xmlns:rdf="http://www.w3.org/1999/02/22-rdf-syntax-ns#"
   xmlns:svg="http://www.w3.org/2000/svg"
   xmlns="http://www.w3.org/2000/svg"
   xmlns:sodipodi="http://sodipodi.sourceforge.net/DTD/sodipodi-0.dtd"
   xmlns:inkscape="http://www.inkscape.org/namespaces/inkscape"
   enable-background="new"
   id="svg4061"
   version="1.1"
   width="150"
   height="39"
   viewBox="0 0 150 39"
   sodipodi:docname="bycamel-logo-new-12-orange1.svg"
   inkscape:version="0.92.1 r15371">
  <sodipodi:namedview
     pagecolor="#ffffff"
     bordercolor="#666666"
     borderopacity="1"
     objecttolerance="10"
     gridtolerance="10"
     guidetolerance="10"
     inkscape:pageopacity="0"
     inkscape:pageshadow="2"
     inkscape:window-width="1920"
     inkscape:window-height="1017"
     id="namedview3997"
     showgrid="false"
     inkscape:zoom="3.7866667"
     inkscape:cx="92.972738"
     inkscape:cy="-20.934286"
     inkscape:window-x="-8"
     inkscape:window-y="-8"
     inkscape:window-maximized="1"
     inkscape:current-layer="svg4061" />
  <metadata
     id="metadata4067">
    <rdf:RDF>
      <cc:Work
         rdf:about="">
        <dc:format>image/svg+xml</dc:format>
        <dc:type
           rdf:resource="http://purl.org/dc/dcmitype/StillImage" />
        <dc:title></dc:title>
      </cc:Work>
    </rdf:RDF>
  </metadata>
  <defs
     id="defs4065" />
  <text
     id="text7758"
     y="64.295784"
     x="114.88613"
     style="font-style:normal;font-weight:normal;font-size:8.97238636px;line-height:125%;font-family:sans-serif;letter-spacing:0px;word-spacing:0px;fill:#000000;fill-opacity:1;stroke:none;stroke-width:0.25635391px;stroke-linecap:butt;stroke-linejoin:miter;stroke-opacity:1"
     xml:space="preserve"
     transform="scale(1.032102,0.96889652)"><tspan
       y="64.295784"
       x="114.88613"
       id="tspan7760"
       style="stroke-width:0.25635391px" /></text>
  <text
     id="text7762"
     y="70.249458"
     x="112.15508"
     style="font-style:normal;font-weight:normal;font-size:8.97238636px;line-height:125%;font-family:sans-serif;letter-spacing:0px;word-spacing:0px;fill:#000000;fill-opacity:1;stroke:none;stroke-width:0.25635391px;stroke-linecap:butt;stroke-linejoin:miter;stroke-opacity:1"
     xml:space="preserve"
     transform="scale(1.032102,0.96889652)"><tspan
       y="70.249458"
       x="112.15508"
       id="tspan7764"
       style="stroke-width:0.25635391px" /></text>
  <text
     id="text7766"
     y="64.951233"
     x="112.48281"
     style="font-style:normal;font-weight:normal;font-size:8.97238636px;line-height:125%;font-family:sans-serif;letter-spacing:0px;word-spacing:0px;fill:#000000;fill-opacity:1;stroke:none;stroke-width:0.25635391px;stroke-linecap:butt;stroke-linejoin:miter;stroke-opacity:1"
     xml:space="preserve"
     transform="scale(1.032102,0.96889652)"><tspan
       y="64.951233"
       x="112.48281"
       id="tspan7768"
       style="stroke-width:0.25635391px" /></text>
  <text
     id="text7770"
     y="67.463791"
     x="112.15508"
     style="font-style:normal;font-weight:normal;font-size:8.97238636px;line-height:125%;font-family:sans-serif;letter-spacing:0px;word-spacing:0px;fill:#000000;fill-opacity:1;stroke:none;stroke-width:0.25635391px;stroke-linecap:butt;stroke-linejoin:miter;stroke-opacity:1"
     xml:space="preserve"
     transform="scale(1.032102,0.96889652)"><tspan
       y="67.463791"
       x="112.15508"
       id="tspan7772"
       style="stroke-width:0.25635391px" /></text>
  <text
     id="text7774"
     y="68.93856"
     x="111.66351"
     style="font-style:normal;font-weight:normal;font-size:8.97238636px;line-height:125%;font-family:sans-serif;letter-spacing:0px;word-spacing:0px;fill:#000000;fill-opacity:1;stroke:none;stroke-width:0.25635391px;stroke-linecap:butt;stroke-linejoin:miter;stroke-opacity:1"
     xml:space="preserve"
     transform="scale(1.032102,0.96889652)"><tspan
       y="68.93856"
       x="111.66351"
       id="tspan7776"
       style="stroke-width:0.25635391px" /></text>
  <text
     id="text7778"
     y="65.005859"
     x="111.11729"
     style="font-style:normal;font-weight:normal;font-size:10.25415611px;line-height:125%;font-family:sans-serif;letter-spacing:0px;word-spacing:0px;fill:#000000;fill-opacity:1;stroke:none;stroke-width:0.25635391px;stroke-linecap:butt;stroke-linejoin:miter;stroke-opacity:1"
     xml:space="preserve"
     transform="scale(1.032102,0.96889652)"><tspan
       y="65.005859"
       x="111.11729"
       id="tspan7780"
       style="stroke-width:0.25635391px" /></text>
  <text
     id="text7782"
     y="66.972214"
     x="111.22653"
     style="font-style:normal;font-weight:normal;font-size:10.25415611px;line-height:125%;font-family:sans-serif;letter-spacing:0px;word-spacing:0px;fill:#000000;fill-opacity:1;stroke:none;stroke-width:0.25635391px;stroke-linecap:butt;stroke-linejoin:miter;stroke-opacity:1"
     xml:space="preserve"
     transform="scale(1.032102,0.96889652)"><tspan
       y="66.972214"
       x="111.22653"
       id="tspan7784"
       style="stroke-width:0.25635391px" /></text>
  <text
     id="text8095"
     y="63.53109"
     x="136.67984"
     style="font-style:normal;font-weight:normal;font-size:10.25415611px;line-height:125%;font-family:sans-serif;letter-spacing:0px;word-spacing:0px;fill:#000000;fill-opacity:1;stroke:none;stroke-width:0.25635391px;stroke-linecap:butt;stroke-linejoin:miter;stroke-opacity:1"
     xml:space="preserve"
     transform="scale(1.032102,0.96889652)"><tspan
       style="fill:#ffffff;stroke-width:0.25635391px"
       y="63.53109"
       x="136.67984"
       id="tspan8097" /></text>
  <g
     style="fill:#ffffff;enable-background:new"
     id="g3883"
     transform="matrix(1.0000009,0,0,1.0000055,-2.6105758e-6,-2.0530746e-5)">
    <text
       xml:space="preserve"
       style="font-style:normal;font-weight:normal;font-size:35px;line-height:125%;font-family:sans-serif;letter-spacing:0px;word-spacing:0px;fill:#ffffff;fill-opacity:1;stroke:none;stroke-width:1px;stroke-linecap:butt;stroke-linejoin:miter;stroke-opacity:1"
       x="14.914773"
       y="16.414774"
       id="text7758-3"><tspan
         id="tspan7760-0"
         x="14.914773"
         y="16.414774"
         style="fill:#ffffff" /></text>
    <text
       xml:space="preserve"
       style="font-style:normal;font-weight:normal;font-size:35px;line-height:125%;font-family:sans-serif;letter-spacing:0px;word-spacing:0px;fill:#ffffff;fill-opacity:1;stroke:none;stroke-width:1px;stroke-linecap:butt;stroke-linejoin:miter;stroke-opacity:1"
       x="4.2613635"
       y="39.639206"
       id="text7762-7"><tspan
         id="tspan7764-3"
         x="4.2613635"
         y="39.639206"
         style="fill:#ffffff" /></text>
    <text
       xml:space="preserve"
       style="font-style:normal;font-weight:normal;font-size:35px;line-height:125%;font-family:sans-serif;letter-spacing:0px;word-spacing:0px;fill:#ffffff;fill-opacity:1;stroke:none;stroke-width:1px;stroke-linecap:butt;stroke-linejoin:miter;stroke-opacity:1"
       x="5.5397725"
       y="18.971592"
       id="text7766-2"><tspan
         id="tspan7768-7"
         x="5.5397725"
         y="18.971592"
         style="fill:#ffffff" /></text>
    <text
       xml:space="preserve"
       style="font-style:normal;font-weight:normal;font-size:35px;line-height:125%;font-family:sans-serif;letter-spacing:0px;word-spacing:0px;fill:#ffffff;fill-opacity:1;stroke:none;stroke-width:1px;stroke-linecap:butt;stroke-linejoin:miter;stroke-opacity:1"
       x="4.2613635"
       y="28.772726"
       id="text7770-7"><tspan
         id="tspan7772-3"
         x="4.2613635"
         y="28.772726"
         style="fill:#ffffff" /></text>
    <text
       xml:space="preserve"
       style="font-style:normal;font-weight:normal;font-size:35px;line-height:125%;font-family:sans-serif;letter-spacing:0px;word-spacing:0px;fill:#ffffff;fill-opacity:1;stroke:none;stroke-width:1px;stroke-linecap:butt;stroke-linejoin:miter;stroke-opacity:1"
       x="2.34375"
       y="34.525566"
       id="text7774-9"><tspan
         id="tspan7776-5"
         x="2.34375"
         y="34.525566"
         style="fill:#ffffff" /></text>
    <text
       xml:space="preserve"
       style="font-style:normal;font-weight:normal;font-size:40px;line-height:125%;font-family:sans-serif;letter-spacing:0px;word-spacing:0px;fill:#ffffff;fill-opacity:1;stroke:none;stroke-width:1px;stroke-linecap:butt;stroke-linejoin:miter;stroke-opacity:1"
       x="0.21306819"
       y="19.184658"
       id="text7778-2"><tspan
         id="tspan7780-8"
         x="0.21306819"
         y="19.184658"
         style="fill:#ffffff" /></text>
    <text
       xml:space="preserve"
       style="font-style:normal;font-weight:normal;font-size:40px;line-height:125%;font-family:sans-serif;letter-spacing:0px;word-spacing:0px;fill:#ffffff;fill-opacity:1;stroke:none;stroke-width:1px;stroke-linecap:butt;stroke-linejoin:miter;stroke-opacity:1"
       x="0.63920456"
       y="26.855114"
       id="text7782-6"><tspan
         id="tspan7784-4"
         x="0.63920456"
         y="26.855114"
         style="fill:#ffffff" /></text>
    <path
       id="text7786-9"
       transform="matrix(0.9999991,0,0,0.9999945,2.6105735e-6,2.0530633e-5)"
       style="font-style:normal;font-weight:normal;font-size:37.18683243px;line-height:125%;font-family:sans-serif;letter-spacing:0px;word-spacing:0px;fill:#ffffff;fill-opacity:1;stroke:none;stroke-width:1.00000322px;stroke-linecap:butt;stroke-linejoin:miter;stroke-opacity:1"
       d="m 55.001953,4.0800781 c -7.234529,-0.02381 -12.597988,5.5124491 -12.603515,12.9960939 -0.0054,7.314328 5.482585,12.886238 12.75,12.910156 4.932629,0.01623 8.68228,-2.341485 11.11914,-6.972656 l -2.697266,-0.0098 c -1.020382,1.317288 -1.611013,1.994081 -2.433593,2.634766 -1.612304,1.315339 -3.816293,2.052173 -6.019531,2.044922 -5.623205,-0.01851 -10.256282,-4.842937 -10.251954,-10.701172 0.0045,-6.027548 4.446752,-10.6167043 10.234375,-10.5976564 2.104591,0.00693 4.076999,0.5881675 5.6875,1.7109375 1.084654,0.7146869 1.742452,1.4620983 2.66211,2.9550779 l 2.728515,0.0078 C 64.306512,6.7520525 60.03324,4.0966369 55.001953,4.0800781 Z M 3.0195312,4.3496094 3,29.375 l 2.4335938,0.0078 0.00195,-3.183593 c 1.510973,2.307636 4.0755788,3.636744 7.0351561,3.646484 5.425898,0.01786 9.505662,-4.134028 9.509766,-9.6875 0.004,-5.451884 -4.135646,-9.697311 -9.462891,-9.714844 -3.0253458,-0.01 -5.5249804,1.268175 -7.0722655,3.59961 l 0.00781,-9.6855471 z m 141.4277388,0.4667968 -0.0195,25.0234378 2.4336,0.0078 0.0195,-25.0234372 z M 78.525391,10.660156 c -5.393014,-0.01775 -9.47246,4.167232 -9.476563,9.720703 -0.0041,5.51961 4.102403,9.665412 9.626953,9.683594 3.058234,0.01007 5.032169,-1.03296 6.941407,-3.667969 l -0.002,3.25 2.433594,0.0078 0.01367,-18.523438 -2.433594,-0.0078 -0.002,3.285156 c -1.773846,-2.579404 -3.977562,-3.737765 -7.101562,-3.748047 z m 53.177729,0.175782 c -5.22855,-0.01721 -9.34172,4.201778 -9.3457,9.585937 -0.004,5.485746 4.16885,9.798874 9.4961,9.816406 2.30189,0.0076 4.4718,-0.865039 6.11718,-2.451172 1.28341,-1.248695 2.14038,-2.532492 2.63477,-4.054687 l -2.5332,-0.0078 c -1.0213,2.536343 -3.55382,4.219921 -6.28321,4.210938 -3.68303,-0.01212 -6.80539,-2.933984 -7,-6.591797 l 16.27735,0.05273 c 0.002,-2.539697 -0.32427,-4.098234 -1.21094,-5.726562 -1.60915,-2.951352 -4.73236,-4.822733 -8.15235,-4.833984 z m -108.048823,0.08398 6.957031,17.935547 -2.93164,7.101562 2.597656,0.0078 10.410156,-24.988282 -2.597656,-0.0098 -6.09375,14.744141 -5.679688,-14.783204 z m -11.203125,1.826172 c 4.04476,0.01331 7.06753,3.170833 7.064453,7.335937 -0.0032,4.266692 -3.064615,7.47425 -7.109375,7.460938 -2.005938,-0.0066 -3.6495791,-0.722188 -5.0625,-2.216797 C 5.9308291,23.831579 5.2738394,22.13464 5.2753906,20.035156 5.2784181,15.937778 8.4392932,12.73289 12.451172,12.746094 Z m 66.138672,0.216797 c 3.946106,0.01299 7.036255,3.20665 7.033203,7.33789 -0.0031,4.198967 -3.031774,7.473708 -6.912109,7.460938 -4.077645,-0.01342 -7.198441,-3.308187 -7.195313,-7.541016 0.003,-4.029653 3.160995,-7.270691 7.074219,-7.257812 z m 53.078126,0.173828 c 3.48572,0.01147 6.14741,2.290642 6.9668,5.984375 l -13.77735,-0.04687 c 0.66031,-3.553413 3.39059,-5.948756 6.81055,-5.9375 z" />
    <text
       xml:space="preserve"
       style="font-style:normal;font-weight:normal;font-size:40px;line-height:125%;font-family:sans-serif;letter-spacing:0px;word-spacing:0px;fill:#ffffff;fill-opacity:1;stroke:none;stroke-width:1px;stroke-linecap:butt;stroke-linejoin:miter;stroke-opacity:1"
       x="99.928978"
       y="13.431819"
       id="text8095-4"><tspan
         id="tspan8097-2"
         x="99.928978"
         y="13.431819"
         style="fill:#ffffff" /></text>
  </g>
  <path
     style="fill:#ff6600;stroke:#ff6600;stroke-width:0.1168582"
     d="m 103.45961,30.384407 c -0.25966,-0.153628 0.0419,-0.555746 0.49916,-0.66627 0.36965,-0.08937 0.39524,-0.130206 0.48111,-0.764495 0.0677,-0.499545 0.0302,-0.93771 -0.14741,-1.720983 -0.22413,-0.988618 -0.65224,-1.940598 -0.87281,-1.940598 -0.14665,0 -0.11981,0.880342 0.0801,2.649821 0.0979,0.867603 0.13871,1.607947 0.0903,1.645195 -0.10318,0.07951 -2.10734,0.34876 -2.16876,0.291645 -0.11262,-0.105372 0.13531,-0.397292 0.38805,-0.456441 0.15724,-0.03689 0.41175,-0.232034 0.56589,-0.43352 0.25398,-0.332078 0.28006,-0.488259 0.28006,-1.664743 0,-0.99668 -0.051,-1.414759 -0.22035,-1.800345 -0.14324,-0.326407 -0.20938,-0.721465 -0.1886,-1.128804 0.0189,-0.344504 0.0302,-1.03794 0.0265,-1.540637 -0.008,-0.835253 -0.0446,-0.977165 -0.44649,-1.647646 -0.24189,-0.403508 -0.43971,-0.876089 -0.43971,-1.050144 0,-0.233451 -0.1663,-0.466874 -0.63507,-0.890809 -1.017083,-0.919723 -1.383963,-1.007073 -1.633983,-0.388994 l -0.14136,0.349819 -0.73728,-0.07773 c -1.46319,-0.154331 -2.87754,-0.924688 -3.63784,-1.98101 -0.755882,-1.050209 -1.109312,-2.817068 -0.845872,-4.228673 0.12283,-0.657856 0.11603,-0.8025 -0.0476,-1.035565 -0.256262,-0.364794 -1.0751,-0.834568 -1.454912,-0.834568 -0.476189,0 -0.593958,-0.429934 -0.292158,-1.066573 0.300849,-0.6348298 0.49652,-0.7345268 1.39527,-0.7112818 0.765062,0.02131 1.164832,-0.09757 0.883972,-0.259351 -0.12776,-0.07341 -0.12738,-0.122762 0.002,-0.268223 0.23244,-0.261483 0.78199,-0.217137 1.2894,0.104304 0.27629,0.17491 0.61535,0.282419 0.89251,0.282419 0.56429,0 0.61753,0.05388 0.4625,0.4690316 -0.10885,0.2912796 -0.0911,0.3598278 0.13229,0.5058262 0.14211,0.09294 0.37961,0.381398 0.52782,0.641171 0.22602,0.39645 0.26986,0.653529 0.27213,1.601105 0.001,0.620876 0.0461,1.192338 0.099,1.269937 0.24263,0.355881 1.21366,-0.07557 2.199103,-0.977626 0.51474,-0.47109 0.87651,-0.990401 1.63038,-2.339984 0.53285,-0.9539988 1.0203,-1.8233098 1.08323,-1.9317628 0.0627,-0.108569 0.25625,-0.500613 0.42985,-0.871442 0.40903,-0.874165 0.61479,-1.075472 1.09937,-1.075472 0.89428,0 1.20081,0.431528 1.07642,1.515346 -0.0707,0.614634 -0.0427,0.777199 0.21695,1.260173 0.16403,0.305125 0.36322,0.7577324 0.44323,1.0060808 0.36549,1.136043 0.47112,1.266388 1.07911,1.332169 0.30954,0.03192 0.61716,0.0106 0.68369,-0.04863 0.0665,-0.06027 0.1096,-0.359265 0.0956,-0.664353 -0.0151,-0.362559 0.0631,-0.741048 0.22942,-1.092435 0.1886,-0.3981778 0.25059,-0.7444598 0.23849,-1.3349018 -0.0265,-1.270818 0.4382,-1.855121 1.47638,-1.858812 0.37304,-9.93e-4 0.54415,0.07341 0.84681,0.371289 0.20864,0.205063 0.77259,0.640789 1.25331,0.968118 0.91149,0.620633 1.48492,1.168783 1.48492,1.419404 0,0.08092 0.0816,0.21004 0.18142,0.2873836 0.24076,0.1862612 0.23169,0.3494648 -0.0151,0.2614834 -0.16214,-0.05782 -0.1731,-0.03192 -0.0654,0.1447498 0.0714,0.118152 0.26835,0.334215 0.43741,0.480427 0.16895,0.146167 0.42256,0.501741 0.5635,0.790185 0.3035,0.621167 0.40025,1.822555 0.14664,1.822555 -0.0884,0 -0.16101,0.101471 -0.16101,0.225652 0,0.124177 0.0442,0.225648 0.0983,0.225648 0.054,0 0.21393,0.100758 0.35566,0.223865 0.41061,0.356993 1.09888,0.679147 1.29832,0.607728 0.21053,-0.0752 0.2385,-0.222102 0.0624,-0.323573 -0.0665,-0.0383 -0.12095,-0.1185 -0.12095,-0.178459 0,-0.14227 0.82909,0.258996 1.1869,0.57441 0.40211,0.354428 0.4811,0.621196 0.61732,2.084497 0.0669,0.719402 0.15534,1.358556 0.19616,1.420326 0.0408,0.06177 0.12208,0.809457 0.17991,1.661523 0.0578,0.852027 0.13455,1.828554 0.17008,2.170002 l 0.0646,0.620847 -0.16706,-0.620847 c -0.21052,-0.782562 -0.45759,-1.354587 -0.58534,-1.354587 -0.1818,0 0.0639,1.172935 0.52574,2.512763 0.44467,1.289491 0.45483,1.355729 0.35415,2.314083 -0.22489,2.141341 -0.25097,2.85812 -0.12057,3.310368 0.0775,0.268937 0.0983,0.721468 0.0491,1.086374 l -0.0835,0.625355 -0.76899,-0.07341 c -0.42294,-0.04046 -0.85135,-0.102897 -0.95196,-0.139079 -0.25021,-0.08937 -0.23094,-0.266805 0.0302,-0.268936 0.4565,-0.0038 0.79228,-0.281345 0.9537,-0.788523 0.21015,-0.660088 0.21015,-2.281225 5.3e-4,-2.994993 -0.0907,-0.308315 -0.23396,-0.814777 -0.31824,-1.125215 -0.0843,-0.310448 -0.30388,-0.894612 -0.48813,-1.298148 -0.18407,-0.403573 -0.37229,-0.935192 -0.41803,-1.181381 -0.0941,-0.505223 -0.37863,-1.07629 -0.53655,-1.07629 -0.28309,0 -0.34054,1.30822 -0.1217,2.775596 l 0.13002,0.872923 -0.56376,1.005086 c -0.30993,0.552798 -0.82728,1.665314 -1.14933,2.472254 -0.82078,2.05625 -0.78589,2.017649 -1.82463,2.017649 -0.81265,0 -0.85064,-0.01061 -0.81378,-0.25154 0.0264,-0.166397 0.16176,-0.286316 0.40158,-0.353726 0.70976,-0.199395 0.87024,-0.322502 1.19011,-0.911921 0.51032,-0.940517 0.80029,-1.833765 0.9989,-3.077594 0.16593,-1.039067 0.16517,-1.221684 -0.008,-1.862577 -0.10432,-0.39076 -0.1818,-1.066101 -0.17235,-1.500692 0.0151,-0.680629 -0.0378,-0.889815 -0.36738,-1.508672 -0.21166,-0.395201 -0.4184,-0.877752 -0.45948,-1.072385 -0.0412,-0.194783 -0.14967,-0.522429 -0.24114,-0.728386 l -0.1663,-0.374517 -0.38813,0.229545 c -0.73263,0.433099 -2.08228,1.059119 -2.73581,1.269018 -0.87331,0.280285 -3.94459,0.302636 -4.79065,0.03548 -0.57004,-0.180587 -1.02816,-0.136589 -1.02634,0.09828 0.004,0.682966 0.27742,2.755976 0.43268,3.294196 0.10734,0.372526 0.21355,1.083808 0.23623,1.580618 0.0227,0.496821 0.18066,1.453793 0.35074,2.126583 0.17046,0.672756 0.30993,1.372891 0.30993,1.555825 0,0.183072 0.0881,0.458068 0.19578,0.611409 0.15647,0.222814 0.16592,0.312224 0.0472,0.445656 -0.2914,0.327825 -1.76585,0.529838 -2.16097,0.296246 z"
     id="path3885"
     inkscape:connector-curvature="0" />
</svg>
